# xmcd
#
# Track frame offsets:
#	150
#	25373
#	50161
#	71406
#	93252
#	112124
#	131513
#	151179
#	168162
#	189166
#	216435
#	234212
#
# Disc length: 3394 seconds
#
# Revision: 37
# Processed by: cddbd v1.5.2PL0 Copyright (c) Steve Scherf et al.
# Submitted via: EasyCDDAExtractor 15.3.0.1
#
DISCID=9c0d400c
DTITLE=Madonna - Confessions On A Dance Floor
DYEAR=2005
DGENRE=Pop
TTITLE0=Hung Up
TTITLE1=Get Together
TTITLE2=Sorry
TTITLE3=Future Lovers
TTITLE4=I Love New York
TTITLE5=Let It Will Be
TTITLE6=Forbidden Love
TTITLE7=Jump
TTITLE8=How High
TTITLE9=Isaac
TTITLE10=Push
TTITLE11=Like It Or Not
EXTD=YEAR: 2005
EXTT0=
EXTT1=
EXTT2=
EXTT3=
EXTT4=
EXTT5=
EXTT6=
EXTT7=
EXTT8=
EXTT9=
EXTT10=
EXTT11=
PLAYORDER=
